<svg id="Calque_1" data-name="Calque 1" xmlns="http://www.w3.org/2000/svg" viewBox="0 0 684.18 330.14"><defs><style>.cls-1{fill:#fff;}</style></defs><path class="cls-1" d="M349.24,469c-5.38,16.39-9.92,31.51-15.29,46.32-13.28,36.57-27,73-40.38,109.5-1.14,3.1-2.87,3.85-5.93,3.8-10.5-.17-21-.3-31.49,0-4.13.14-5.72-1.36-7.06-5Q211.17,519.78,173,416.07q-7.14-19.44-14.22-38.89c-.32-.89-.47-1.85-.8-3.17,17.31,0,34.29-.08,51.26.15,1.25,0,3.11,2.08,3.6,3.56,9.91,30,19.65,60.06,29.46,90.09Q256.11,510,270,552.19c.36,1.1.78,2.18,1.64,4.54,10.56-31.32,20.78-61.55,31-91.78s20.35-60.5,30.58-90.94c9.86,0,19.52-.14,29.17.16,1.27,0,3.1,2.08,3.62,3.57q14.64,41.65,29,83.41,15.66,45.26,31.3,90.51c.42,1.23,1,2.41,2,4.82,2.47-7.67,4.63-14.28,6.73-20.91q24.88-78.45,49.63-157c1.18-3.78,2.79-4.75,6.55-4.7,16.14.21,32.3.09,49.2.09-3.14,8.72-6.09,16.95-9.06,25.18q-40.53,112.4-81,224.81c-1.21,3.38-2.63,4.69-6.28,4.6-10.66-.24-21.33-.22-32,0-3.39.07-4.86-1.07-6.14-4.22-19.88-48.86-38.42-98.21-54.18-148.58C351.16,473.9,350.39,472.06,349.24,469Z" transform="translate(-158 -315.17)"/><path class="cls-1" d="M740,531H684.2c-9.49,0-11.69-2.23-11.7-11.82,0-12,0-24,0-36,0-8.54,2.5-11,11-11q53,0,106,0c7.82,0,10.45,2.63,10.46,10.58,0,35.15.13,70.31-.16,105.47a16.11,16.11,0,0,1-4,9.73c-26.89,30.16-60.73,45.73-101.07,47.19-25.23.92-50-2-73.43-11.64-40.73-16.73-65.74-47.29-75.49-89.9-11.2-49-4.41-95.1,25.53-136.35,20.76-28.62,49.8-44.65,84.23-50.87,46.18-8.35,88.31.81,125.28,30.6,3,2.4,5.81,5,8.59,7.62,3.72,3.55,4.09,8.26.59,11.94q-14.48,15.19-29.29,30.06c-4.19,4.18-7.9,3.62-13.12-.71-24.12-20-51.66-27.15-82.15-19.94-32.79,7.76-56.27,35.78-60.52,70.48-1.86,15.19-1.8,30.24,2.79,45,9.42,30.26,33.91,49.8,65.55,52.54,16.59,1.44,32.87,1.14,48.49-5.81,17.8-7.91,18.17-8.24,18.17-27.31Zm7-7.11v29.05c0,20.95,0,20.95-19.1,30.21-.6.29-1.21.56-1.82.84-17.19,7.92-35.22,8.71-53.76,7-33.5-3-60.59-24.18-70.84-56.1-5.23-16.32-6-33-3.32-49.86,4.18-26.25,15.64-48.4,38-63.73,32.89-22.52,81.33-19.48,113.33,6.79,1.76,1.44,3.5,2.88,5.25,4.33l-1-1.79L786.24,401c-5.14-4.36-9.37-8.34-14-11.81-35.33-26.58-75-33.75-117.78-25.35-40.79,8-71.52,30.42-89.93,67.76-20.25,41.07-22.4,83.91-6.83,127,12.64,35,37.35,58.4,72.51,70.72,19.58,6.85,39.79,9.05,60.44,8.85,39.65-.39,72.9-14.93,99.42-44.45a12.17,12.17,0,0,0,2.79-7.43c.18-33.83.12-67.66.12-101.49v-5.15H680v44.26Z" transform="translate(-158 -315.17)"/><path class="cls-1" d="M842,341c2,13.92-11.74,26-25,25.95a25.89,25.89,0,1,1-.14-51.78C831.51,315.22,844,328.24,842,341Zm-25-20.52a20.63,20.63,0,1,0,20.43,20.86A20.78,20.78,0,0,0,817,320.48Z" transform="translate(-158 -315.17)"/><path class="cls-1" d="M812.65,344.23v9.62H806v-26.5c4.78,0,9.76-.48,14.56.23,2.07.31,5.1,2.93,5.33,4.8.36,2.95-1.26,6.16-2.24,10.05l6.15,10.78c-4.83,1.77-7.89,1-9.61-3.75M813,332.13v6.73c3.26.15,6.68.59,6.48-3.55S815.8,332.11,813,332.13Z" transform="translate(-158 -315.17)"/></svg>