<?xml version="1.0" standalone="no"?>
<!DOCTYPE svg PUBLIC "-//W3C//DTD SVG 20010904//EN"
 "http://www.w3.org/TR/2001/REC-SVG-20010904/DTD/svg10.dtd">
<svg version="1.0" xmlns="http://www.w3.org/2000/svg"
 width="1368.000000pt" height="1368.000000pt" viewBox="0 0 1368.000000 1368.000000"
 preserveAspectRatio="xMidYMid meet">
<metadata>
Created by potrace 1.14, written by Peter Selinger 2001-2017
</metadata>
<g transform="translate(0.000000,1368.000000) scale(0.100000,-0.100000)"
fill="#000000" stroke="none">
<path d="M13050 10125 c-204 -58 -343 -207 -387 -415 -9 -42 -2 -172 12 -220
50 -175 185 -315 345 -361 68 -19 71 -19 136 -23 135 -6 290 58 394 165 97 99
130 191 129 360 -2 165 -30 237 -131 344 -47 51 -175 135 -204 135 -8 0 -25 5
-37 12 -31 16 -203 19 -257 3z m225 -106 c132 -33 243 -138 290 -274 53 -156
-9 -348 -146 -451 -73 -54 -129 -74 -224 -81 -93 -6 -177 17 -254 70 -52 35
-110 96 -111 115 0 6 -3 12 -8 12 -10 0 -40 70 -51 121 -13 58 -6 175 13 229
50 137 187 251 322 267 27 3 50 6 52 8 5 4 76 -5 117 -16z"/>
<path d="M12965 9892 c-11 -8 -14 -500 -3 -517 5 -8 76 -11 121 -6 4 1 7 42 7
91 0 73 3 90 15 90 8 0 15 -3 15 -7 0 -5 27 -26 59 -47 32 -21 66 -54 76 -73
11 -19 27 -39 38 -45 26 -13 87 -17 114 -7 23 8 23 9 6 44 -9 19 -20 35 -25
35 -4 0 -8 8 -8 19 0 10 -7 24 -15 31 -8 7 -15 17 -15 22 0 6 -10 23 -21 40
l-22 30 21 67 c12 36 23 80 26 97 5 43 -19 90 -63 116 -32 21 -51 23 -176 25
-77 2 -145 0 -150 -5z m246 -109 c19 -19 18 -81 -2 -99 -21 -19 -109 -27 -110
-10 -6 80 -4 118 9 125 16 9 89 -2 103 -16z"/>
<path d="M10457 9374 c-1 -2 -49 -5 -107 -8 -58 -3 -116 -8 -130 -10 -14 -3
-50 -7 -81 -11 -56 -6 -80 -9 -129 -20 -14 -3 -41 -7 -60 -9 -127 -14 -440
-104 -623 -180 -136 -57 -372 -179 -397 -206 -12 -13 -101 -70 -109 -70 -5 0
-11 -3 -13 -8 -1 -4 -23 -23 -48 -42 -25 -19 -50 -39 -56 -45 -6 -5 -31 -26
-54 -45 -99 -81 -295 -290 -360 -385 -90 -131 -200 -297 -212 -320 -9 -17 -35
-66 -59 -110 -38 -69 -87 -171 -135 -280 -19 -42 -75 -197 -79 -216 -2 -9 -10
-37 -18 -61 -39 -113 -90 -346 -102 -458 -2 -25 -7 -55 -9 -66 -25 -121 -26
-665 -1 -793 2 -10 6 -42 10 -72 3 -30 9 -67 11 -84 3 -16 7 -42 9 -56 17
-136 108 -490 152 -599 4 -8 7 -17 8 -20 1 -3 5 -14 10 -25 4 -11 17 -42 27
-69 18 -47 117 -252 141 -291 61 -102 151 -232 212 -308 66 -82 239 -259 305
-312 81 -65 160 -125 165 -125 3 0 14 -8 25 -18 42 -39 289 -177 435 -242 88
-39 193 -80 207 -80 8 0 18 -4 24 -8 7 -8 106 -41 139 -48 6 -1 37 -10 70 -19
33 -9 67 -18 75 -20 52 -11 180 -38 205 -42 17 -2 41 -6 55 -9 14 -2 50 -7 80
-10 30 -3 66 -8 80 -10 94 -19 625 -26 775 -11 144 14 226 25 275 37 19 4 42
8 50 8 8 0 53 10 100 22 47 11 92 22 100 24 8 2 22 6 30 9 8 3 44 15 80 26 92
28 187 64 264 100 37 17 74 31 82 31 8 0 14 4 14 8 0 5 19 17 43 27 23 10 71
36 106 57 34 21 65 38 67 38 12 0 246 167 295 210 9 8 36 31 60 50 88 70 304
296 331 346 15 27 31 75 35 105 5 29 8 542 8 1139 0 1064 0 1086 -20 1125 -22
43 -65 73 -117 81 -52 7 -2223 7 -2270 -1 -68 -12 -98 -32 -120 -83 -20 -44
-21 -64 -21 -487 0 -539 1 -544 102 -582 42 -16 97 -18 647 -18 l601 0 -2
-305 c-3 -329 -6 -365 -37 -424 -30 -60 -71 -91 -203 -155 -173 -85 -303 -131
-431 -155 -127 -24 -183 -28 -374 -29 -209 0 -322 8 -450 32 -30 6 -65 13 -78
16 -12 2 -26 6 -30 9 -5 3 -22 8 -38 11 -34 7 -42 9 -69 19 -11 5 -33 13 -50
19 -96 34 -322 156 -345 186 -3 4 -18 14 -33 24 -91 58 -268 260 -350 399 -47
79 -113 215 -122 248 0 3 -11 34 -22 70 -22 64 -41 136 -49 175 -2 11 -6 32
-9 47 -7 29 -9 48 -21 148 -16 142 -3 519 21 610 2 8 7 35 10 60 13 88 82 313
120 390 7 14 19 39 26 55 81 178 267 416 424 540 28 22 52 42 55 45 17 19 159
105 237 144 71 35 282 117 296 115 1 -1 20 3 42 7 51 10 55 11 58 14 1 1 11 3
22 5 11 1 38 5 60 9 22 3 51 8 65 12 57 13 386 12 480 -3 128 -19 296 -64 405
-108 94 -38 269 -127 296 -151 8 -8 19 -14 22 -14 9 0 134 -90 212 -152 95
-76 155 -97 212 -73 41 18 652 636 680 688 40 77 17 141 -81 234 -106 99 -129
119 -253 210 -215 156 -446 286 -658 368 -66 25 -128 51 -137 56 -10 5 -26 9
-36 9 -10 0 -22 3 -26 7 -3 4 -12 8 -19 9 -7 2 -21 5 -32 8 -115 32 -250 65
-286 70 -24 3 -69 10 -99 15 -138 24 -246 32 -432 35 -82 1 -150 1 -151 0z
m333 -149 c52 -3 106 -8 120 -9 103 -14 154 -22 205 -33 17 -3 39 -7 50 -8 68
-9 298 -78 425 -127 89 -35 233 -100 240 -109 3 -3 16 -10 30 -14 14 -4 42
-19 62 -31 21 -13 42 -24 48 -24 5 0 10 -4 10 -10 0 -5 4 -10 10 -10 9 0 110
-58 120 -70 3 -3 19 -14 35 -24 48 -30 246 -182 290 -222 22 -20 60 -53 83
-72 l44 -36 -64 -59 c-34 -33 -94 -87 -132 -121 -38 -33 -88 -79 -111 -101
-24 -22 -80 -74 -126 -115 -46 -41 -90 -82 -99 -90 -9 -8 -39 -36 -66 -61 -28
-26 -48 -52 -45 -60 2 -8 -11 -2 -30 14 -86 69 -180 138 -244 180 -70 45 -264
145 -320 164 -16 6 -39 15 -50 19 -11 4 -22 8 -25 9 -3 1 -12 4 -20 8 -15 6
-33 11 -150 43 -30 9 -70 17 -89 20 -18 2 -36 6 -40 8 -3 3 -24 7 -46 10 -22
3 -60 8 -85 12 -179 25 -476 13 -630 -26 -19 -5 -49 -12 -67 -15 -67 -11 -252
-77 -348 -124 -97 -48 -263 -150 -297 -184 -9 -9 -19 -17 -22 -17 -14 0 -167
-149 -241 -234 -69 -80 -158 -214 -212 -321 -42 -83 -111 -248 -118 -285 -2
-8 -10 -35 -18 -60 -16 -47 -28 -95 -32 -120 -1 -8 -7 -35 -13 -60 -11 -45
-22 -112 -27 -160 -2 -14 -4 -25 -5 -25 -6 0 -14 -159 -14 -300 -1 -155 3
-220 19 -331 7 -43 53 -240 62 -264 3 -8 8 -21 10 -27 1 -7 5 -19 6 -25 2 -7
8 -22 12 -33 5 -11 16 -40 25 -65 50 -129 142 -286 239 -410 40 -51 201 -212
251 -250 17 -14 64 -46 103 -72 40 -26 77 -51 82 -55 26 -20 204 -101 275
-126 76 -26 212 -62 280 -72 25 -4 54 -9 65 -11 95 -18 493 -25 620 -10 39 4
87 9 108 11 20 2 41 6 45 9 5 3 24 8 43 11 19 3 59 13 89 22 30 9 62 18 70 19
80 16 445 196 502 248 41 38 72 93 83 151 5 22 9 227 10 456 l3 417 -665 -1
c-463 0 -667 3 -671 10 -8 13 -8 861 0 868 4 4 1695 8 2193 5 l61 0 -1 -1087
c-2 -1048 -2 -1090 -21 -1130 -10 -24 -22 -43 -26 -43 -5 0 -8 -5 -8 -11 0 -5
-51 -61 -113 -122 -127 -125 -164 -159 -252 -225 -33 -25 -62 -49 -65 -52 -5
-5 -94 -64 -194 -128 -64 -41 -226 -125 -296 -152 -30 -12 -68 -28 -85 -35
-28 -13 -111 -41 -230 -78 -90 -27 -255 -61 -355 -73 -30 -3 -57 -8 -60 -9 -4
-2 -51 -7 -105 -11 -182 -15 -591 -8 -729 11 -28 4 -96 12 -166 20 -14 1 -62
10 -108 20 -45 9 -95 18 -110 21 -15 3 -35 7 -44 10 -9 3 -25 7 -36 9 -25 4
-156 43 -207 60 -397 136 -699 318 -955 574 -63 64 -122 125 -131 136 -8 12
-33 43 -55 71 -65 84 -167 234 -158 234 3 0 -4 14 -16 30 -74 104 -233 507
-276 701 -2 10 -6 27 -9 37 -20 76 -36 152 -49 237 -24 148 -24 150 -26 150
-1 0 -3 25 -5 55 -3 30 -7 80 -9 110 -7 71 -7 372 -1 430 2 25 6 68 9 95 10
121 51 345 86 475 12 41 23 82 25 90 6 26 45 144 54 165 5 11 23 58 41 105 68
176 134 313 228 470 151 252 341 474 547 639 50 39 95 76 102 81 78 63 326
203 471 264 88 38 310 115 352 122 14 3 43 10 65 16 22 6 45 12 50 13 123 27
230 46 270 50 28 2 50 5 50 5 0 7 129 20 260 26 72 4 131 7 132 8 3 3 159 -2
253 -9z"/>
<path d="M5 8945 c6 -29 19 -67 60 -180 21 -55 43 -118 50 -140 8 -22 23 -65
35 -95 27 -71 90 -242 94 -255 3 -11 11 -31 31 -85 18 -47 46 -125 88 -240
105 -286 136 -370 160 -435 7 -16 12 -32 13 -35 1 -7 14 -40 24 -65 5 -11 20
-51 34 -90 13 -38 38 -106 54 -150 48 -128 152 -414 178 -485 37 -105 52 -143
65 -175 7 -16 13 -34 15 -40 1 -5 23 -66 49 -135 26 -69 53 -145 61 -170 8
-25 19 -54 24 -65 17 -37 142 -380 147 -405 3 -14 9 -29 13 -35 4 -5 17 -39
29 -75 12 -36 26 -74 31 -85 10 -24 191 -519 227 -620 13 -38 28 -79 33 -90
11 -28 26 -66 125 -340 165 -456 198 -536 228 -559 26 -19 41 -20 390 -21 292
-2 368 1 394 12 34 16 45 36 108 208 20 55 53 143 72 195 19 52 51 138 69 190
19 52 37 102 41 110 3 8 7 20 9 25 1 6 42 114 89 240 48 127 88 235 90 240 1
6 5 17 8 25 4 8 20 51 36 95 127 349 213 583 221 600 5 11 24 60 41 109 17 49
35 100 41 115 6 14 12 31 14 36 1 6 28 82 59 170 31 88 58 165 59 170 1 6 7
24 13 40 11 30 107 326 108 335 0 3 14 43 30 90 16 47 30 90 31 97 1 6 8 29
15 50 12 37 12 37 21 13 21 -54 77 -219 97 -285 12 -38 25 -77 28 -85 3 -8 7
-17 8 -20 0 -3 9 -32 20 -65 10 -33 19 -62 20 -65 0 -3 23 -70 50 -150 27 -80
50 -149 52 -155 1 -5 21 -62 43 -125 22 -63 52 -146 65 -185 34 -98 98 -278
129 -357 14 -38 23 -68 19 -68 -3 0 -1 -6 5 -13 6 -7 18 -35 27 -62 9 -28 20
-59 25 -70 6 -11 21 -49 34 -85 40 -113 97 -264 106 -285 11 -27 35 -89 36
-95 0 -3 8 -21 16 -40 8 -19 28 -69 43 -110 15 -41 33 -88 41 -105 7 -16 20
-50 29 -75 26 -68 155 -391 170 -425 7 -16 28 -68 46 -114 54 -133 23 -125
455 -125 332 -1 370 1 396 16 36 22 43 40 133 293 31 88 70 194 86 236 16 42
29 82 29 91 0 8 3 18 7 22 5 4 8 11 9 14 0 4 4 14 7 22 4 8 16 40 26 70 11 30
38 107 61 170 23 63 57 158 75 210 19 52 51 140 71 195 20 55 47 132 60 170
14 39 27 77 31 85 3 8 7 17 7 20 2 9 48 134 57 155 4 11 58 160 120 330 150
419 166 464 209 585 20 58 56 157 79 220 23 63 58 160 78 215 19 55 39 109 43
120 5 11 66 180 136 375 70 195 132 366 137 380 6 14 11 30 13 35 4 15 61 173
84 235 12 30 23 62 25 70 6 26 205 573 220 608 8 18 15 38 15 45 0 7 6 23 13
37 7 14 12 34 12 45 0 19 -9 20 -505 21 -278 0 -517 -4 -532 -9 -37 -12 -50
-35 -93 -172 -21 -66 -40 -127 -43 -135 -7 -21 -8 -23 -14 -40 -3 -8 -10 -31
-16 -50 -5 -19 -25 -80 -42 -135 -18 -55 -33 -104 -35 -110 -1 -5 -5 -17 -8
-25 -3 -8 -24 -76 -47 -150 -23 -74 -47 -151 -55 -170 -7 -19 -13 -39 -14 -45
-1 -10 -87 -285 -98 -315 -3 -8 -7 -19 -8 -25 -2 -5 -28 -91 -60 -190 -31 -99
-66 -209 -76 -245 -11 -36 -23 -72 -26 -80 -4 -8 -7 -17 -8 -20 -3 -11 -29
-95 -30 -100 -1 -3 -12 -39 -25 -80 -13 -41 -25 -77 -25 -80 -1 -3 -4 -12 -8
-20 -6 -16 -99 -313 -124 -395 -8 -27 -19 -59 -23 -70 -5 -11 -21 -60 -35
-110 -15 -49 -40 -128 -55 -175 -36 -112 -61 -192 -66 -210 -2 -8 -15 -49 -28
-90 -14 -41 -50 -149 -79 -240 l-53 -165 -31 80 c-16 44 -51 143 -77 220 -26
77 -50 147 -54 155 -3 8 -6 17 -7 20 -5 15 -18 48 -27 70 -5 14 -12 36 -15 50
-2 13 -9 30 -15 37 -6 7 -7 13 -3 13 4 0 2 7 -5 15 -7 8 -9 15 -4 15 4 0 3 5
-4 12 -7 7 -12 20 -12 30 0 10 -4 26 -10 36 -5 9 -32 85 -60 167 -28 83 -60
175 -71 205 -11 30 -21 62 -24 70 -2 8 -29 87 -60 175 -31 88 -58 165 -59 170
-1 6 -5 15 -8 21 -4 6 -9 22 -12 37 -2 15 -7 31 -10 36 -3 5 -33 89 -67 187
-33 99 -64 188 -69 199 -5 11 -24 67 -44 125 -19 58 -67 197 -107 310 -39 113
-74 215 -76 228 -3 12 -9 25 -14 28 -5 3 -9 16 -9 29 0 13 -4 27 -10 30 -6 3
-10 16 -10 29 0 12 -3 26 -7 30 -5 4 -8 11 -9 14 0 4 -3 14 -6 22 -4 8 -23 62
-43 120 -20 58 -50 141 -65 185 -16 44 -49 141 -75 215 -69 200 -78 222 -107
243 -25 18 -45 20 -300 22 -268 1 -322 -2 -324 -21 0 -5 -3 -16 -7 -24 -5 -14
-100 -300 -102 -310 -1 -3 -4 -12 -8 -20 -3 -8 -11 -33 -18 -55 -6 -22 -16
-46 -22 -52 -5 -7 -7 -13 -4 -13 3 0 -26 -91 -64 -202 -39 -112 -72 -210 -74
-218 -4 -18 -208 -622 -294 -875 -34 -99 -63 -187 -66 -195 -4 -18 -213 -638
-222 -660 -3 -8 -7 -19 -9 -25 -5 -20 -164 -490 -171 -505 -3 -8 -7 -17 -7
-20 -6 -36 -153 -447 -157 -442 -6 6 -97 270 -103 297 -4 17 -197 609 -206
630 -8 18 -100 298 -377 1150 -41 127 -78 239 -82 250 -5 11 -18 49 -29 85
-46 148 -225 697 -232 715 -9 21 -69 203 -74 220 -1 6 -19 62 -40 125 -40 123
-66 159 -115 161 -14 0 -248 2 -518 2 -488 2 -492 2 -488 -18z"/>
</g>
</svg>
